<svg width="21" height="21" viewBox="0 0 21 21" fill="none" xmlns="http://www.w3.org/2000/svg">
  <path d="M10.5 20.9992C9.11694 21.0058 7.74711 20.7295 6.47439 20.1872C5.77939 19.9026 5.11833 19.541 4.50352 19.1093C2.29679 17.5692 0.765479 15.2386 0.226313 12.5994C0.0873857 11.9081 0.0171538 11.2047 0.0166463 10.4995C-0.00554876 10.2667 -0.00554876 10.0323 0.0166463 9.79949C0.103716 8.35241 0.496345 6.94031 1.1686 5.65645C1.84085 4.37259 2.77742 3.24619 3.91645 2.35167C4.68086 1.7039 5.5446 1.1839 6.47439 0.811703C7.74961 0.278024 9.11793 0.00321683 10.5 0.00321683C11.8821 0.00321683 13.2504 0.278024 14.5256 0.811703C15.2223 1.09282 15.8837 1.45461 16.4965 1.88968C18.7032 3.42974 20.2345 5.76038 20.7737 8.39952C20.9126 9.09086 20.9828 9.79427 20.9834 10.4995C21.0055 10.7323 21.0055 10.9667 20.9834 11.1995C20.9053 12.6481 20.521 14.0635 19.8559 15.3523C19.1909 16.641 18.2602 17.7737 17.1255 18.6753C16.3542 19.3134 15.4921 19.8325 14.5675 20.2152C13.2787 20.7497 11.8949 21.0164 10.5 20.9992ZM10.5 1.39969C9.30028 1.39783 8.11226 1.6358 7.00555 2.09967C6.2001 2.44641 5.45467 2.91894 4.79706 3.49964C3.81303 4.28401 3.00374 5.26589 2.42118 6.3822C1.83862 7.4985 1.49569 8.72452 1.41443 9.98148C1.40224 10.1539 1.40224 10.327 1.41443 10.4995C1.41256 11.1108 1.47345 11.7206 1.59614 12.3194C2.07394 14.5903 3.39871 16.5931 5.30026 17.9193C5.82719 18.3136 6.39977 18.6426 7.00555 18.8993C8.11262 19.3621 9.30035 19.6004 10.5 19.6004C11.6996 19.6004 12.8874 19.3621 13.9945 18.8993C14.8041 18.5524 15.5541 18.0799 16.2169 17.4993C17.201 16.716 18.0094 15.7341 18.5898 14.6174C19.1702 13.5006 19.5095 12.2741 19.5856 11.0175C19.5978 10.845 19.5978 10.6719 19.5856 10.4995C19.5874 9.88818 19.5266 9.27832 19.4039 8.67951C18.9261 6.40862 17.6013 4.40583 15.6997 3.07965C15.1697 2.69016 14.5977 2.36145 13.9945 2.09967C12.8877 1.6358 11.6997 1.39783 10.5 1.39969Z" fill="#166130"/>
  <path d="M12.5965 14.8352H8.40319C8.28122 14.8345 8.16157 14.8018 8.05613 14.7404C7.95069 14.679 7.86312 14.591 7.80214 14.4852L5.70547 10.8453C5.64413 10.7389 5.61184 10.6182 5.61184 10.4953C5.61184 10.3724 5.64413 10.2517 5.70547 10.1453L7.80214 6.5054C7.86312 6.39961 7.95069 6.31164 8.05613 6.25024C8.16157 6.18884 8.28122 6.15615 8.40319 6.15541H12.5965C12.7185 6.15615 12.8381 6.18884 12.9436 6.25024C13.049 6.31164 13.1366 6.39961 13.1976 6.5054L15.2942 10.1453C15.3556 10.2517 15.3879 10.3724 15.3879 10.4953C15.3879 10.6182 15.3556 10.7389 15.2942 10.8453L13.1976 14.4852C13.1366 14.591 13.049 14.679 12.9436 14.7404C12.8381 14.8018 12.7185 14.8345 12.5965 14.8352ZM8.80854 13.4352H12.1912L13.8825 10.4953L12.1912 7.55538H8.80854L7.11723 10.4953L8.80854 13.4352Z" fill="#166130"/>
  <path d="M20.088 9.23688H16.7892C16.6673 9.23615 16.5476 9.20345 16.4422 9.14205C16.3367 9.08065 16.2492 8.99269 16.1882 8.88689L14.0915 5.24698C14.0302 5.14057 13.9979 5.01986 13.9979 4.89699C13.9979 4.77411 14.0302 4.65341 14.0915 4.54699L15.4893 2.11105C15.5363 2.02733 15.6003 1.95442 15.6772 1.89704C15.7541 1.83967 15.8422 1.79911 15.9358 1.778C16.0293 1.75688 16.1263 1.75568 16.2203 1.77447C16.3144 1.79325 16.4034 1.83161 16.4817 1.88706C18.6969 3.42148 20.2343 5.75386 20.7729 8.3969C20.7921 8.49925 20.7896 8.60449 20.7655 8.7058C20.7414 8.8071 20.6963 8.90219 20.6331 8.98489C20.5648 9.06267 20.4811 9.12528 20.3872 9.16868C20.2933 9.21208 20.1914 9.23531 20.088 9.23688ZM17.1946 7.83692H19.1934C18.6719 6.13874 17.6662 4.63026 16.3 3.49702L15.5033 4.89699L17.1946 7.83692Z" fill="#166130"/>
  <path d="M12.596 5.03638H8.40266C8.2807 5.03565 8.16105 5.00295 8.0556 4.94155C7.95016 4.88016 7.8626 4.79219 7.80162 4.68639L6.13826 1.80246C6.08893 1.71642 6.05842 1.62087 6.04876 1.52212C6.0391 1.42338 6.05051 1.32371 6.08223 1.22972C6.11396 1.13573 6.16527 1.04957 6.23276 0.976944C6.30025 0.904322 6.38239 0.8469 6.47373 0.808486C7.74895 0.274807 9.11726 0 10.4993 0C11.8814 0 13.2497 0.274807 14.5249 0.808486C14.6163 0.8469 14.6984 0.904322 14.7659 0.976944C14.8334 1.04957 14.8847 1.13573 14.9164 1.22972C14.9482 1.32371 14.9596 1.42338 14.9499 1.52212C14.9402 1.62087 14.9097 1.71642 14.8604 1.80246L13.197 4.68639C13.1361 4.79219 13.0485 4.88016 12.9431 4.94155C12.8376 5.00295 12.718 5.03565 12.596 5.03638ZM8.80802 3.63642H12.1906L13.239 1.81646C11.4554 1.25624 9.54329 1.25624 7.75968 1.81646L8.80802 3.63642Z" fill="#166130"/>
  <path d="M4.209 10.6365H0.742506C0.647583 10.637 0.553647 10.6172 0.466904 10.5786C0.380162 10.54 0.302586 10.4834 0.239305 10.4125C0.166 10.3482 0.107902 10.2684 0.0692203 10.1788C0.0305388 10.0892 0.0122435 9.99211 0.0156599 9.89456C0.094428 8.43178 0.482875 7.0025 1.15523 5.70155C1.82758 4.40059 2.76847 3.25772 3.91547 2.34874C3.99242 2.28527 4.08253 2.23977 4.17925 2.21555C4.27597 2.19134 4.37685 2.18901 4.47458 2.20874C4.57389 2.22544 4.66818 2.26431 4.75045 2.32247C4.83272 2.38064 4.90086 2.4566 4.94982 2.54474L6.90672 5.94666C6.96806 6.05307 7.00035 6.17377 7.00035 6.29665C7.00035 6.41952 6.96806 6.54023 6.90672 6.64664L4.81005 10.2866C4.74906 10.3923 4.6615 10.4803 4.55606 10.5417C4.45062 10.6031 4.33097 10.6358 4.209 10.6365ZM1.51128 9.23658H3.80364L5.49496 6.29665L4.209 3.9867C2.74779 5.38444 1.79774 7.23329 1.51128 9.23658Z" fill="#166130"/>
  <path d="M4.90809 19.2317C4.76753 19.2328 4.63035 19.1886 4.51671 19.1057C2.30157 17.5713 0.764106 15.2389 0.225527 12.5959C0.206324 12.4936 0.208846 12.3883 0.232928 12.287C0.25701 12.1857 0.302114 12.0906 0.365305 12.0079C0.433579 11.9301 0.517354 11.8675 0.611241 11.8241C0.705128 11.7807 0.807047 11.7575 0.910439 11.7559H4.2092C4.33117 11.7567 4.45082 11.7894 4.55626 11.8508C4.6617 11.9122 4.74926 12.0001 4.81025 12.1059L6.90692 15.7458C6.96826 15.8522 7.00055 15.9729 7.00055 16.0958C7.00055 16.2187 6.96826 16.3394 6.90692 16.4458L5.50914 18.8818C5.46237 18.9661 5.39836 19.0396 5.32128 19.0975C5.24421 19.1554 5.1558 19.1964 5.06185 19.2177L4.90809 19.2317ZM1.80502 13.1559C2.32651 14.8541 3.33221 16.3625 4.69842 17.4958L5.49516 16.0958L3.80384 13.1559H1.80502Z" fill="#166130"/>
  <path d="M10.4993 20.9954C9.11628 21.0019 7.74644 20.7256 6.47373 20.1834C6.38239 20.145 6.30025 20.0876 6.23276 20.0149C6.16527 19.9423 6.11396 19.8562 6.08223 19.7622C6.05051 19.6682 6.0391 19.5685 6.04876 19.4698C6.05842 19.371 6.08893 19.2755 6.13826 19.1894L7.80162 16.3055C7.8626 16.1997 7.95016 16.1117 8.05561 16.0503C8.16105 15.9889 8.2807 15.9562 8.40266 15.9555H12.596C12.718 15.9562 12.8376 15.9889 12.9431 16.0503C13.0485 16.1117 13.1361 16.1997 13.197 16.3055L14.8604 19.1894C14.9018 19.2794 14.9232 19.3773 14.9232 19.4764C14.9232 19.5755 14.9018 19.6734 14.8604 19.7634C14.8301 19.8558 14.7809 19.9409 14.7159 20.0132C14.6509 20.0856 14.5716 20.1435 14.483 20.1834C13.2212 20.7132 11.8676 20.9891 10.4993 20.9954ZM7.70377 19.1754C9.48738 19.7356 11.3995 19.7356 13.1831 19.1754L12.1347 17.3555H8.80802L7.70377 19.1754Z" fill="#166130"/>
  <path d="M16.6494 18.7984H16.5236C16.4243 18.7817 16.33 18.7428 16.2478 18.6847C16.1655 18.6265 16.0974 18.5505 16.0484 18.4624L14.0915 15.0605C14.0302 14.9541 13.9979 14.8334 13.9979 14.7105C13.9979 14.5876 14.0302 14.4669 14.0915 14.3605L16.1882 10.7206C16.2474 10.6122 16.3342 10.5214 16.4397 10.4575C16.5453 10.3936 16.6659 10.3587 16.7892 10.3566H20.2557C20.3506 10.3562 20.4446 10.3759 20.5313 10.4145C20.6181 10.4531 20.6956 10.5097 20.7589 10.5806C20.8272 10.6475 20.88 10.7285 20.9138 10.818C20.9476 10.9074 20.9615 11.0032 20.9546 11.0986C20.8793 12.5592 20.4951 13.9871 19.8277 15.2879C19.1602 16.5887 18.2246 17.7328 17.0828 18.6444C16.9593 18.7423 16.8069 18.7964 16.6494 18.7984ZM15.5033 14.6965L16.901 17.0064C18.3468 15.6026 19.2818 13.7545 19.5568 11.7566H17.1946L15.5033 14.6965Z" fill="#166130"/>
</svg>