<svg width="16" height="16" viewBox="0 0 16 16" fill="none" xmlns="http://www.w3.org/2000/svg">
<path d="M11.9203 12.6968C12.4378 13.2168 13.4309 13.4097 14.0402 12.7723C12.6715 12.6968 11.7451 11.5394 12.0288 10.1807C11.261 10.8768 11.2443 12.0174 11.9203 12.6968Z" fill="#4F39B6"/>
<path d="M14.6994 11.8738C14.7912 11.5719 14.7912 10.859 14.2905 10.339C13.7564 9.75189 13.0136 9.76866 12.8133 9.80221C12.2291 9.91124 12.1706 10.1796 12.2458 10.7835C12.3376 11.4964 13.0803 12.3183 13.773 12.4609C14.3739 12.5867 14.5576 12.3603 14.6994 11.8738Z" fill="#4F39B6"/>
<path d="M13.0306 0.0317599C12.8721 -0.00178827 12.6968 -0.0185624 12.5299 0.0317599C12.3129 0.107243 12.1376 0.249823 11.9791 0.409177C9.29172 3.10981 6.60437 5.82721 3.90032 8.52784C3.52476 8.90525 3.52476 9.15686 3.90032 9.52589C4.73491 10.3814 5.58618 11.2201 6.42911 12.0839C6.92985 12.5872 7.10512 12.5872 7.62256 12.0672C10.2348 9.42525 12.8721 6.80849 15.4676 4.16657C15.6596 3.97367 15.8766 3.75561 15.9684 3.48722C16.0184 3.32787 16.0018 3.15174 15.9684 2.984C15.7013 1.48272 14.5245 0.300145 13.0306 0.0317599Z" fill="#4F39B6"/>
<path d="M0.812203 15.9416C0.954082 15.9919 1.07927 16.0339 1.20446 15.9584C1.32964 15.8829 1.47152 15.7655 1.58002 15.6732C2.48971 14.801 3.39106 13.9539 4.28406 13.0648C4.7097 12.6371 5.13534 12.2932 5.72789 12.3687C5.06857 11.7061 4.40925 11.0268 3.74993 10.3474C3.76662 10.792 3.64143 11.1861 3.32429 11.5132C2.25603 12.5868 0.653632 14.1384 0.0861169 14.7506C-0.0223787 14.8597 -0.0223788 15.0693 0.0527335 15.2539C0.169575 15.5306 0.528445 15.8326 0.812203 15.9416Z" fill="#4F39B6"/>
</svg>
