<svg width="28" height="28" viewBox="0 0 28 28" fill="none" xmlns="http://www.w3.org/2000/svg">
<path d="M20.5114 21.7387C21.4018 22.6291 23.1107 22.9594 24.159 21.868C21.8039 21.7387 20.2099 19.757 20.6981 17.4306C19.377 18.6225 19.3482 20.5755 20.5114 21.7387Z" fill="#22B455"/>
<path d="M25.2931 20.3312C25.4511 19.8142 25.4511 18.5935 24.5895 17.7032C23.6704 16.698 22.3923 16.7267 22.0477 16.7841C21.0424 16.9708 20.9419 17.4303 21.0712 18.4643C21.2291 19.6849 22.5072 21.0923 23.6991 21.3364C24.7331 21.5518 25.049 21.1641 25.2931 20.3312Z" fill="#22B455"/>
<path d="M22.4211 0.0543188C22.1482 -0.00312294 21.8466 -0.0318438 21.5594 0.0543188C21.1861 0.183563 20.8845 0.42769 20.6116 0.700538C15.9876 5.3246 11.3635 9.97738 6.71074 14.6014C6.06452 15.2477 6.06452 15.6785 6.71074 16.3103C8.14678 17.7751 9.61155 19.2111 11.062 20.6903C11.9236 21.5519 12.2251 21.5519 13.1155 20.6615C17.6103 16.138 22.1482 11.6576 26.6143 7.13401C26.9446 6.80372 27.318 6.43035 27.4759 5.97082C27.5621 5.69797 27.5334 5.3964 27.4759 5.10919C27.0164 2.53867 24.9916 0.513853 22.4211 0.0543188Z" fill="#22B455"/>
<path d="M1.39754 27.2962C1.64166 27.3824 1.85707 27.4542 2.07248 27.3249C2.28788 27.1957 2.53201 26.9946 2.7187 26.8367C4.28398 25.3432 5.83491 23.8928 7.37148 22.3706C8.10386 21.6382 8.83624 21.0494 9.85583 21.1787C8.72136 20.0442 7.58688 18.881 6.45241 17.7178C6.48113 18.4789 6.26572 19.1538 5.72003 19.7139C3.88189 21.552 1.12469 24.2087 0.148179 25.257C-0.0385065 25.4437 -0.0385067 25.8027 0.0907372 26.1187C0.291783 26.5926 0.909282 27.1095 1.39754 27.2962Z" fill="#22B455"/>
</svg>
