<svg width="28" height="28" viewBox="0 0 28 28" fill="none" xmlns="http://www.w3.org/2000/svg">
<path d="M20.5119 21.7387C21.4023 22.6291 23.1112 22.9594 24.1595 21.868C21.8044 21.7387 20.2103 19.757 20.6986 17.4306C19.3774 18.6225 19.3487 20.5755 20.5119 21.7387Z" fill="#166130"/>
<path d="M25.2922 20.3312C25.4501 19.8142 25.4501 18.5935 24.5885 17.7032C23.6694 16.698 22.3913 16.7267 22.0467 16.7841C21.0415 16.9708 20.9409 17.4303 21.0702 18.4643C21.2281 19.6849 22.5062 21.0923 23.6981 21.3364C24.7321 21.5518 25.048 21.1641 25.2922 20.3312Z" fill="#166130"/>
<path d="M22.4215 0.0543188C22.1487 -0.00312294 21.8471 -0.0318438 21.5599 0.0543188C21.1865 0.183563 20.885 0.42769 20.6121 0.700538C15.9881 5.3246 11.364 9.97738 6.71123 14.6014C6.06501 15.2477 6.06501 15.6785 6.71123 16.3103C8.14727 17.7751 9.61203 19.2111 11.0624 20.6903C11.9241 21.5519 12.2256 21.5519 13.116 20.6615C17.6108 16.138 22.1487 11.6576 26.6148 7.13401C26.9451 6.80372 27.3185 6.43035 27.4764 5.97082C27.5626 5.69797 27.5339 5.3964 27.4764 5.10919C27.0169 2.53867 24.9921 0.513853 22.4215 0.0543188Z" fill="#166130"/>
<path d="M1.39754 27.2962C1.64166 27.3824 1.85707 27.4542 2.07248 27.3249C2.28788 27.1957 2.53201 26.9946 2.7187 26.8367C4.28398 25.3432 5.83491 23.8928 7.37148 22.3706C8.10386 21.6382 8.83624 21.0494 9.85583 21.1787C8.72136 20.0442 7.58688 18.881 6.45241 17.7178C6.48113 18.4789 6.26572 19.1538 5.72003 19.7139C3.88189 21.552 1.12469 24.2087 0.148179 25.257C-0.0385065 25.4437 -0.0385067 25.8027 0.0907372 26.1187C0.291783 26.5926 0.909282 27.1095 1.39754 27.2962Z" fill="#166130"/>
</svg>
