<svg width="37" height="30" viewBox="0 0 37 30" fill="none" xmlns="http://www.w3.org/2000/svg">
<path d="M1.71789 8.70918H3.94478C4.7401 8.70918 5.13775 8.33593 5.13775 7.58942V6.62519C5.13775 5.87869 4.71889 5.50544 3.88115 5.50544H1.71789C1.60124 5.50544 1.54292 5.55728 1.54292 5.66096V8.55365C1.54292 8.65734 1.60124 8.70918 1.71789 8.70918ZM1.71789 4.26127H3.78571C4.59164 4.26127 4.9946 3.88284 4.9946 3.12597V2.41057C4.9946 1.66407 4.60224 1.29082 3.81753 1.29082H1.71789C1.60124 1.29082 1.54292 1.34266 1.54292 1.44634V4.10575C1.54292 4.20943 1.60124 4.26127 1.71789 4.26127ZM0 9.73561V0.264385C0 0.0881284 0.0901361 0 0.270408 0H4.04022C4.82493 0 5.43467 0.207361 5.86945 0.622083C6.30422 1.03681 6.52161 1.6226 6.52161 2.37947V3.14152C6.52161 4.04355 6.08683 4.62416 5.21729 4.88336C5.63085 4.9352 5.97019 5.11146 6.23529 5.41213C6.511 5.7128 6.64886 6.11716 6.64886 6.62519V7.62053C6.64886 8.3774 6.43147 8.96319 5.9967 9.37792C5.56192 9.79264 4.95748 10 4.18337 10H0.270408C0.0901361 10 0 9.91187 0 9.73561Z" fill="#17823C"/>
<path d="M13.6597 10H8.56968C8.3894 10 8.29927 9.91187 8.29927 9.73561V0.264385C8.29927 0.0881284 8.3894 0 8.56968 0H13.6597C13.8294 0 13.9142 0.0881284 13.9142 0.264385V1.05754C13.9142 1.2338 13.8294 1.32193 13.6597 1.32193H10.0331C9.90581 1.32193 9.84219 1.37377 9.84219 1.47745V4.10575C9.84219 4.20943 9.90581 4.26127 10.0331 4.26127H13.103C13.2939 4.26127 13.3893 4.3494 13.3893 4.52566V5.31882C13.3893 5.49507 13.2939 5.5832 13.103 5.5832H10.0331C9.90581 5.5832 9.84219 5.63504 9.84219 5.73872V8.507C9.84219 8.62105 9.90581 8.67807 10.0331 8.67807H13.6597C13.8294 8.67807 13.9142 8.7662 13.9142 8.94246V9.73561C13.9142 9.91187 13.8294 10 13.6597 10Z" fill="#17823C"/>
<path d="M18.2641 10H17.262C17.0711 10 16.9757 9.91187 16.9757 9.73561V1.47745C16.9757 1.37377 16.9227 1.32193 16.8166 1.32193H14.8124C14.6215 1.32193 14.5261 1.2338 14.5261 1.05754V0.264385C14.5261 0.0881284 14.6215 0 14.8124 0H20.7137C20.9046 0 21 0.0881284 21 0.264385V1.05754C21 1.2338 20.9046 1.32193 20.7137 1.32193H18.7095C18.5928 1.32193 18.5345 1.37377 18.5345 1.47745V9.73561C18.5345 9.91187 18.4444 10 18.2641 10Z" fill="#17823C"/>
<path d="M20.6196 17.5771V6.78861C20.6196 6.28368 20.8202 5.79943 21.1773 5.44239C21.5343 5.08535 22.0185 4.88477 22.5235 4.88477C23.0284 4.88477 23.5127 5.08535 23.8697 5.44239C24.2267 5.79943 24.4273 6.28368 24.4273 6.78861L24.4546 16.9425" fill="#1A1D24"/>
<path d="M20.6196 17.5771V6.78861C20.6196 6.28368 20.8202 5.79943 21.1773 5.44239C21.5343 5.08535 22.0185 4.88477 22.5235 4.88477C23.0284 4.88477 23.5127 5.08535 23.8697 5.44239C24.2267 5.79943 24.4273 6.28368 24.4273 6.78861L24.4546 16.9425" stroke="#17823C" stroke-linecap="round" stroke-linejoin="round"/>
<path d="M24.455 16.9424L24.4277 13.1347C24.4277 12.6298 24.6283 12.1456 24.9854 11.7885C25.3424 11.4315 25.8266 11.2309 26.3316 11.2309C26.8365 11.2309 27.3208 11.4315 27.6778 11.7885C28.0348 12.1456 28.2354 12.6298 28.2354 13.1347V16.3078" fill="#1A1D24"/>
<path d="M24.455 16.9424L24.4277 13.1347C24.4277 12.6298 24.6283 12.1456 24.9854 11.7885C25.3424 11.4315 25.8266 11.2309 26.3316 11.2309C26.8365 11.2309 27.3208 11.4315 27.6778 11.7885C28.0348 12.1456 28.2354 12.6298 28.2354 13.1347V16.3078" stroke="#17823C" stroke-linecap="round" stroke-linejoin="round"/>
<path d="M28.2627 16.3078C28.2627 15.8029 28.436 13.4148 28.7931 13.0577C29.1501 12.7007 29.6343 12.5001 30.1393 12.5001C30.6442 12.5001 31.1285 12.7007 31.4855 13.0577C31.8425 13.4148 32.0431 13.899 32.0431 14.404V16.3078" fill="#1A1D24"/>
<path d="M28.2627 16.3078C28.2627 15.8029 28.436 13.4148 28.7931 13.0577C29.1501 12.7007 29.6343 12.5001 30.1393 12.5001C30.6442 12.5001 31.1285 12.7007 31.4855 13.0577C31.8425 13.4148 32.0431 13.899 32.0431 14.404V16.3078" stroke="#17823C" stroke-linecap="round" stroke-linejoin="round"/>
<path d="M32.0431 15.6733C32.0431 15.1683 32.2437 14.6841 32.6008 14.327C32.9578 13.97 33.442 13.7694 33.947 13.7694C34.4519 13.7694 34.9362 13.97 35.2932 14.327C35.6502 14.6841 35.8508 15.1683 35.8508 15.6733V21.3848C35.8508 23.4045 35.0485 25.3415 33.6203 26.7697C32.1922 28.1978 30.2552 29.0002 28.2354 29.0002H25.697H25.961C24.6998 29.0004 23.4583 28.6874 22.348 28.0892C21.2376 27.4911 20.2932 26.6266 19.5996 25.5733L19.3508 25.1925C18.9548 24.5845 17.565 22.1616 15.1801 17.9223C14.937 17.4902 14.8721 16.9803 14.9991 16.501C15.1262 16.0217 15.4352 15.6109 15.8604 15.3559C16.3134 15.0842 16.8442 14.9715 17.3685 15.0359C17.8928 15.1003 18.3805 15.338 18.7543 15.7113L20.62 17.5771" fill="#1A1D24"/>
<path d="M32.0431 15.6733C32.0431 15.1683 32.2437 14.6841 32.6008 14.327C32.9578 13.97 33.442 13.7694 33.947 13.7694C34.4519 13.7694 34.9362 13.97 35.2932 14.327C35.6502 14.6841 35.8508 15.1683 35.8508 15.6733V21.3848C35.8508 23.4045 35.0485 25.3415 33.6203 26.7697C32.1922 28.1978 30.2552 29.0002 28.2354 29.0002H25.697H25.961C24.6998 29.0004 23.4583 28.6874 22.348 28.0892C21.2376 27.4911 20.2932 26.6266 19.5996 25.5733L19.3508 25.1925C18.9548 24.5845 17.565 22.1616 15.1801 17.9223C14.937 17.4902 14.8721 16.9803 14.9991 16.501C15.1262 16.0217 15.4352 15.6109 15.8604 15.3559C16.3134 15.0842 16.8442 14.9715 17.3685 15.0359C17.8928 15.1003 18.3805 15.338 18.7543 15.7113L20.6201 17.5771" stroke="#17823C" stroke-linecap="round" stroke-linejoin="round"/>
</svg>
