<svg width="16" height="16" viewBox="0 0 16 16" fill="none" xmlns="http://www.w3.org/2000/svg">
<path d="M14.8222 15.6283C6.50454 15.64 0.191429 9.2518 0.200204 1.00624C0.200204 0.467069 0.637004 0.0283203 1.1752 0.0283203H3.7492C4.23182 0.0283203 4.64229 0.38322 4.71347 0.860968C4.88322 2.00664 5.21649 3.12203 5.70309 4.17304L5.80352 4.38948C5.87098 4.53514 5.88549 4.69977 5.84455 4.85498C5.80361 5.01019 5.70979 5.14625 5.57927 5.23968C4.78172 5.80908 4.47752 6.9547 5.09859 7.8478C5.87762 8.96905 6.85944 9.95185 7.98069 10.7309C8.87476 11.351 10.0204 11.0468 10.5888 10.2502C10.6821 10.1193 10.8183 10.0251 10.9737 9.98398C11.1292 9.94285 11.2941 9.95735 11.44 10.025L11.6555 10.1244C12.7065 10.6119 13.8219 10.9454 14.9675 11.115C15.4453 11.1862 15.8002 11.5967 15.8002 12.0803V14.6533C15.8002 14.7814 15.7749 14.9083 15.7259 15.0266C15.6768 15.145 15.6049 15.2525 15.5143 15.3431C15.4236 15.4336 15.316 15.5054 15.1976 15.5543C15.0792 15.6033 14.9523 15.6284 14.8242 15.6283H14.8222Z" fill="#545151"/>
</svg>
