<svg width="28" height="30" viewBox="0 0 28 30" fill="none" xmlns="http://www.w3.org/2000/svg">
<path d="M5.54038 0.742376C5.45083 0.310019 5.06972 -0.000268936 4.62786 -0.000268936H0.931957C0.344082 -0.000268936 -0.0966607 0.537378 0.0183238 1.11416L0.853313 5.2961L1.72865 5.57006L6.87183 7.18207L5.54038 0.742376ZM23.9646 12.4002C22.7034 11.7088 21.234 11.4991 19.8297 11.8103L2.88213 15.559L4.35009 22.1953C4.7873 24.1717 6.43938 25.6458 8.45189 25.8564L18.0199 26.8552C17.988 26.6046 17.9661 26.3502 17.9661 26.0902C17.9661 22.7507 20.6832 20.0335 24.0228 20.0335C24.8291 20.0335 25.5975 20.1947 26.3017 20.4826C27.892 17.6127 26.8564 13.9842 23.9646 12.4002Z" fill="#22B455"/>
<path d="M24.0231 22.363C21.9648 22.363 20.2959 24.0318 20.2959 26.0902C20.2959 28.1485 21.9648 29.8174 24.0231 29.8174C26.0815 29.8174 27.7503 28.1485 27.7503 26.0902C27.7503 24.0318 26.0815 22.363 24.0231 22.363ZM1.17139 7.34786L2.63096 13.7056L8.08966 12.4979L7.45491 9.3177L1.17139 7.34786Z" fill="#22B455"/>
</svg>
