<svg width="23" height="26" viewBox="0 0 23 26" fill="none" xmlns="http://www.w3.org/2000/svg">
<path d="M6.61963 13.5771V2.78861C6.61963 2.28368 6.82021 1.79943 7.17725 1.44239C7.53429 1.08535 8.01854 0.884766 8.52347 0.884766C9.02841 0.884766 9.51266 1.08535 9.8697 1.44239C10.2267 1.79943 10.4273 2.28368 10.4273 2.78861L10.4546 12.9425" fill="#1A1D24"/>
<path d="M6.61963 13.5771V2.78861C6.61963 2.28368 6.82021 1.79943 7.17725 1.44239C7.53429 1.08535 8.01854 0.884766 8.52347 0.884766C9.02841 0.884766 9.51266 1.08535 9.8697 1.44239C10.2267 1.79943 10.4273 2.28368 10.4273 2.78861L10.4546 12.9425" stroke="#17823C" stroke-linecap="round" stroke-linejoin="round"/>
<path d="M10.455 12.9425L10.4277 9.13477C10.4277 8.62984 10.6283 8.14559 10.9854 7.78855C11.3424 7.43151 11.8266 7.23093 12.3316 7.23093C12.8365 7.23093 13.3208 7.43151 13.6778 7.78855C14.0348 8.14559 14.2354 8.62984 14.2354 9.13477V12.3078" fill="#1A1D24"/>
<path d="M10.455 12.9425L10.4277 9.13477C10.4277 8.62984 10.6283 8.14559 10.9854 7.78855C11.3424 7.43151 11.8266 7.23093 12.3316 7.23093C12.8365 7.23093 13.3208 7.43151 13.6778 7.78855C14.0348 8.14559 14.2354 8.62984 14.2354 9.13477V12.3078" stroke="#17823C" stroke-linecap="round" stroke-linejoin="round"/>
<path d="M14.2627 12.3078C14.2627 11.8029 14.436 9.41482 14.7931 9.05778C15.1501 8.70074 15.6343 8.50015 16.1393 8.50015C16.6442 8.50015 17.1285 8.70074 17.4855 9.05778C17.8425 9.41482 18.0431 9.89907 18.0431 10.404V12.3078" fill="#1A1D24"/>
<path d="M14.2627 12.3078C14.2627 11.8029 14.436 9.41482 14.7931 9.05778C15.1501 8.70074 15.6343 8.50015 16.1393 8.50015C16.6442 8.50015 17.1285 8.70074 17.4855 9.05778C17.8425 9.41482 18.0431 9.89907 18.0431 10.404V12.3078" stroke="#17823C" stroke-linecap="round" stroke-linejoin="round"/>
<path d="M18.0431 11.6732C18.0431 11.1683 18.2437 10.684 18.6008 10.327C18.9578 9.96996 19.442 9.76938 19.947 9.76938C20.4519 9.76938 20.9362 9.96996 21.2932 10.327C21.6502 10.684 21.8508 11.1683 21.8508 11.6732V17.3848C21.8508 19.4045 21.0485 21.3415 19.6203 22.7697C18.1922 24.1978 16.2552 25.0001 14.2354 25.0001H11.697H11.961C10.6998 25.0004 9.45829 24.6873 8.34796 24.0892C7.23763 23.4911 6.29324 22.6265 5.59959 21.5732L5.35082 21.1925C4.95482 20.5845 3.56501 18.1615 1.18013 13.9223C0.937005 13.4902 0.872063 12.9802 0.999112 12.501C1.12616 12.0217 1.43518 11.6109 1.86043 11.3559C2.31339 11.0841 2.84418 10.9715 3.36848 11.0359C3.89279 11.1003 4.38054 11.338 4.75428 11.7113L6.62005 13.5771" fill="#1A1D24"/>
<path d="M18.0431 11.6732C18.0431 11.1683 18.2437 10.684 18.6008 10.327C18.9578 9.96996 19.442 9.76938 19.947 9.76938C20.4519 9.76938 20.9362 9.96996 21.2932 10.327C21.6502 10.684 21.8508 11.1683 21.8508 11.6732V17.3848C21.8508 19.4045 21.0485 21.3415 19.6203 22.7697C18.1922 24.1978 16.2552 25.0001 14.2354 25.0001H11.697H11.961C10.6998 25.0004 9.45829 24.6873 8.34796 24.0892C7.23763 23.4911 6.29324 22.6265 5.59959 21.5732L5.35082 21.1925C4.95482 20.5845 3.56501 18.1615 1.18013 13.9223C0.937005 13.4902 0.872063 12.9802 0.999112 12.501C1.12616 12.0217 1.43518 11.6109 1.86043 11.3559C2.31339 11.0841 2.84418 10.9715 3.36848 11.0359C3.89279 11.1003 4.38054 11.338 4.75428 11.7113L6.62005 13.5771" stroke="#17823C" stroke-linecap="round" stroke-linejoin="round"/>
</svg>
