<svg width="25" height="25" viewBox="0 0 25 25" fill="none" xmlns="http://www.w3.org/2000/svg">
<path d="M24.324 10.5639C24.4759 11.3777 24.5586 12.2285 24.5586 13.1164C24.5586 20.0613 19.9106 24.9995 12.8904 24.9995C11.2939 25 9.71295 24.6859 8.2379 24.0752C6.76284 23.4644 5.42259 22.5691 4.2937 21.4402C3.16481 20.3113 2.26943 18.971 1.6587 17.496C1.04798 16.0209 0.733889 14.44 0.734376 12.8435C0.733889 11.247 1.04798 9.66608 1.6587 8.19102C2.26943 6.71597 3.16481 5.37571 4.2937 4.24682C5.42259 3.11794 6.76284 2.22255 8.2379 1.61183C9.71295 1.00111 11.2939 0.687014 12.8904 0.687501C16.1726 0.687501 18.9153 1.8952 21.0195 3.85616L17.5927 7.28291V7.27426C16.3171 6.05916 14.6982 5.43555 12.8904 5.43555C8.87954 5.43555 5.6195 8.82402 5.6195 12.8361C5.6195 16.8469 8.87954 20.2428 12.8904 20.2428C16.5295 20.2428 19.0067 18.1621 19.5154 15.3046H12.8904V10.5639H24.3252H24.324Z" fill="#22B455"/>
</svg>
