<svg width="26" height="20" viewBox="0 0 26 20" fill="none" xmlns="http://www.w3.org/2000/svg">
<path d="M21.7475 0.661361L20.0841 1.98683L13.0016 7.355L5.91916 1.93381L4.25576 0.608342C3.86389 0.277697 3.38552 0.0715792 2.87993 0.015525C2.37433 -0.0405292 1.86372 0.0559437 1.41135 0.292991C0.958982 0.530039 0.584739 0.897244 0.334987 1.34911C0.0852339 1.80098 -0.0290538 2.31766 0.00628245 2.83514V18.1974C0.00628245 18.6754 0.192486 19.134 0.523932 19.472C0.855377 19.8101 1.30491 20 1.77365 20H5.91916V9.76735L13.0016 15.1885L20.0841 9.76735V20H24.2296C24.6983 20 25.1479 19.8101 25.4793 19.472C25.8107 19.134 25.9969 18.6754 25.9969 18.1974V2.83514C26.0213 2.32213 25.8991 1.81294 25.6451 1.36946C25.3911 0.92598 25.0162 0.567314 24.5661 0.337059C24.116 0.106803 23.61 0.0148746 23.1096 0.0724473C22.6092 0.13002 22.136 0.334614 21.7475 0.661361Z" fill="#22B455"/>
</svg>
