<svg width="26" height="26" viewBox="0 0 26 26" fill="none" xmlns="http://www.w3.org/2000/svg">
<rect x="0.75" y="0.75" width="24.5" height="24.5" stroke="#17823C" stroke-width="1.5"/>
<path d="M8.40723 17.8537L17.8539 8.4071" stroke="#17823C" stroke-width="1.5" stroke-linecap="square" stroke-linejoin="round"/>
<path d="M8.99885 10.7755C9.98008 10.7755 10.7755 9.98014 10.7755 8.99891C10.7755 8.01769 9.98008 7.22223 8.99885 7.22223C8.01762 7.22223 7.22217 8.01769 7.22217 8.99891C7.22217 9.98014 8.01762 10.7755 8.99885 10.7755Z" stroke="#17823C" stroke-width="1.5" stroke-linecap="round" stroke-linejoin="round"/>
<path d="M18.4456 19.0374C19.4268 19.0374 20.2223 18.2419 20.2223 17.2607C20.2223 16.2795 19.4268 15.4841 18.4456 15.4841C17.4644 15.4841 16.6689 16.2795 16.6689 17.2607C16.6689 18.2419 17.4644 19.0374 18.4456 19.0374Z" stroke="#17823C" stroke-width="1.5" stroke-linecap="round" stroke-linejoin="round"/>
</svg>
