<svg width="17" height="17" viewBox="0 0 17 17" fill="none" xmlns="http://www.w3.org/2000/svg">
<path d="M8.23851 9.44352C6.88276 9.37854 5.54518 9.01411 4.34426 8.37977C3.73949 8.06032 3.15151 7.67544 2.63936 7.21968C2.51632 7.11062 1.89975 6.56625 1.55922 6.18456C1.44435 6.05596 1.23095 6.0914 1.17556 6.25408C0.929925 6.97339 0.78464 7.73815 0.750133 8.53154C0.748771 8.5738 0.757845 8.61742 0.777369 8.65514C2.16535 11.3547 4.94585 13.0728 8.00876 13.0728C8.38153 13.0728 8.75203 13.0392 9.11843 12.9865C9.23648 12.9692 9.32456 12.8611 9.31638 12.742C9.24147 11.6428 8.94498 10.5623 8.43102 9.5653C8.39379 9.49305 8.31978 9.44761 8.23851 9.44352ZM8.6762 8.98548L8.75928 8.93732L8.6762 8.88915V8.98548ZM12.5069 6.21727C12.4365 6.13185 12.3121 6.10867 12.2158 6.1632C11.1026 6.793 10.1477 7.68181 9.43216 8.76646C9.38676 8.83508 9.38404 8.92368 9.42218 8.99684C10.5945 11.2393 10.8065 13.8694 9.99245 16.2745C9.91026 16.5167 9.819 16.753 9.71957 16.9839C10.8819 16.8621 11.9679 16.4876 12.9332 15.9265C12.9664 15.9069 12.9954 15.8797 13.0168 15.8474C14.7008 13.285 14.8138 9.98198 13.2687 7.30374C13.0467 6.91886 12.7879 6.55807 12.5069 6.21727ZM15.1062 3.68762C14.4424 2.88969 13.6324 2.219 12.7126 1.72234C12.6803 1.70507 12.644 1.69461 12.6072 1.69234C9.54976 1.51603 6.63849 3.07009 5.09432 5.74606C4.87139 6.13366 4.68706 6.5408 4.53224 6.95794C4.49364 7.06246 4.53678 7.18242 4.63349 7.23786C5.7268 7.86448 6.95904 8.2289 8.23805 8.29843C8.31887 8.30297 8.3956 8.26208 8.43964 8.19437C9.7972 6.10186 11.9425 4.63686 14.3979 4.14656C14.5832 4.1093 14.7689 4.07886 14.9546 4.05387C15.1312 4.02979 15.2202 3.82439 15.1062 3.68762Z" fill="#4F39B6"/>
<path d="M9.01356 14.153C8.6803 14.1898 8.34522 14.2098 8.00923 14.2098C5.44394 14.2098 3.05346 13.1511 1.33721 11.3694C1.26093 11.2903 1.127 11.3657 1.16196 11.4702C2.18399 14.5197 4.9604 16.7636 8.28892 16.9994C8.38155 17.0062 8.47099 16.9549 8.51231 16.8717C8.66486 16.5636 8.80425 16.2455 8.91775 15.9111C9.08484 15.4176 9.19925 14.9137 9.26781 14.4057C9.28734 14.2589 9.16021 14.1367 9.01356 14.153ZM16.1319 5.24176C16.091 5.16088 16.0057 5.11044 15.9153 5.11362C15.4844 5.12952 15.0522 5.17542 14.6209 5.2613C14.3271 5.31992 14.0406 5.39989 13.7591 5.49259C13.6116 5.54121 13.5607 5.72206 13.6542 5.84611C13.8699 6.13102 14.0729 6.42593 14.2527 6.73674C15.4831 8.87061 15.7882 11.3516 15.207 13.6495C15.1784 13.7622 15.3214 13.8313 15.3909 13.7382C16.4002 12.3831 17.0005 10.7059 17.0005 8.88969C17.0005 7.57829 16.6854 6.34005 16.1319 5.24176ZM1.99283 4.56061C1.9438 4.63832 1.94607 4.73919 1.99783 4.81462C2.17127 5.06863 2.35652 5.31628 2.56401 5.55303C2.78331 5.80249 3.01986 6.03151 3.2664 6.24735C3.38263 6.34914 3.56198 6.30233 3.62236 6.16056C3.76629 5.82476 3.92884 5.49623 4.11227 5.17905C5.38992 2.96385 7.48892 1.42161 9.87759 0.819981C9.54569 0.778629 9.2097 0.75 8.86691 0.75C5.9729 0.75 3.43439 2.27588 1.99283 4.56061Z" fill="#4F39B6"/>
</svg>
