<svg width="28" height="28" viewBox="0 0 28 28" fill="none" xmlns="http://www.w3.org/2000/svg">
<path d="M25.3556 2.39697C23.6531 0.693733 21.3118 -0.148487 18.7587 0.0214882C17.8517 0.0820942 16.9572 0.272966 16.0962 0.577391C16.8409 1.19947 17.3808 2.05631 17.6072 3.03297C18.2021 2.87484 18.8026 2.78637 19.3919 2.78637C20.8959 2.78637 22.3233 3.30535 23.3856 4.367C25.7618 6.74387 25.4204 10.9522 22.6242 13.7491C19.8273 16.546 15.619 16.8866 13.2421 14.5105C11.6908 12.9584 11.3048 10.6261 11.998 8.41437C11.0436 8.15174 10.2167 7.58469 9.62459 6.82328C9.6016 6.8811 9.57095 6.93754 9.54935 6.99536L9.54449 6.99326C8.79423 8.52095 8.386 10.5586 7.9541 12.716C7.48667 15.0469 6.96908 17.6167 5.98197 19.4258C5.55424 19.4892 5.14184 19.6787 4.81234 20.0082L0.612416 24.2074C-0.204022 25.0239 -0.204023 26.3467 0.611719 27.1632C1.01994 27.5714 1.55496 27.7755 2.08996 27.7755C2.62496 27.7755 3.15997 27.5714 3.56749 27.1632L7.76741 22.964C8.09552 22.6359 8.28499 22.2255 8.34977 21.7992C10.1108 20.9013 12.7169 20.3314 15.0854 19.8152C17.4344 19.3025 19.6531 18.8191 21.2212 18.0249L21.2205 18.0228C22.4514 17.4857 23.6009 16.7132 24.5943 15.7191C28.4765 11.8362 28.8185 5.86056 25.3556 2.39697ZM9.44486 18.3635C9.77993 17.3548 10.0412 16.2973 10.2725 15.244C10.5622 15.6808 10.8903 16.0981 11.2721 16.4805C11.6671 16.8755 12.0976 17.2231 12.556 17.5241C11.4853 17.7721 10.4341 18.0423 9.44486 18.3635Z" fill="#22B455"/>
<path d="M13.1996 1.26699C11.66 1.26699 10.4131 2.51462 10.4131 4.05346C10.4131 5.59229 11.66 6.83994 13.1996 6.83994C14.7384 6.83994 15.986 5.59229 15.986 4.05346C15.986 2.51462 14.7384 1.26699 13.1996 1.26699Z" fill="#22B455"/>
</svg>
