<svg width="28" height="31" viewBox="0 0 28 31" fill="none" xmlns="http://www.w3.org/2000/svg">
<path d="M4.6344 16.004C4.57155 15.9414 4.45983 15.9915 4.46769 16.0801C4.50522 16.5636 4.57331 17.0443 4.67195 17.519C5.25504 20.3089 4.29397 23.1982 2.27846 25.2134L0.255976 27.2364C-0.0853253 27.5774 -0.0853253 28.1301 0.255976 28.4708L2.3902 30.6056C2.7315 30.9466 3.28405 30.9466 3.62448 30.6056L5.64784 28.5826C7.66335 26.5674 10.5526 25.6066 13.3424 26.1889C13.8172 26.2878 14.2973 26.356 14.7809 26.3943C14.8691 26.4011 14.9197 26.2895 14.8569 26.2265L4.6344 16.004ZM24.4727 6.38859C22.5697 4.48594 20.1422 3.4211 17.6309 3.17425C17.637 3.27995 17.6466 3.38426 17.6466 3.49137C17.6466 6.61973 15.1013 9.16517 11.9728 9.16517C10.2323 9.16517 8.67416 8.37546 7.63193 7.1377C6.15237 8.80545 5.22099 10.7797 4.83867 12.8269C4.80899 12.9834 4.86224 13.145 4.97484 13.2575L17.603 25.8868C17.7156 25.9994 17.8779 26.0523 18.0342 26.0229C20.3011 25.5987 22.4825 24.5093 24.2527 22.739C28.8284 18.1635 28.927 10.843 24.4727 6.38859Z" fill="#22B455"/>
<path d="M11.973 -0.000382423C10.0448 -0.000382423 8.48145 1.56297 8.48145 3.49119C8.48145 5.41933 10.0448 6.98277 11.973 6.98277C13.9012 6.98277 15.4646 5.41933 15.4646 3.49119C15.4646 1.56297 13.9012 -0.000382423 11.973 -0.000382423Z" fill="#22B455"/>
</svg>
