<svg width="18" height="15" viewBox="0 0 18 15" fill="none" xmlns="http://www.w3.org/2000/svg">
<path d="M15.6 3.78684H10.072L12.95 0.984036C13.056 0.873114 13.1137 0.726404 13.1109 0.574814C13.1082 0.423224 13.0452 0.278589 12.9353 0.171382C12.8254 0.0641753 12.6771 0.00276579 12.5216 9.11619e-05C12.3662 -0.00258347 12.2157 0.0536857 12.102 0.157044L9.25 2.93839L6.4 0.157044C6.28626 0.0536857 6.13582 -0.00258347 5.98038 9.11619e-05C5.82494 0.00276579 5.67663 0.0641753 5.5667 0.171382C5.45677 0.278589 5.3938 0.423224 5.39106 0.574814C5.38832 0.726404 5.44602 0.873114 5.552 0.984036L8.428 3.78684H2.4C1.76348 3.78684 1.15303 4.03343 0.702944 4.47237C0.252857 4.91131 0 5.50663 0 6.12738V12.6595C0 13.2802 0.252857 13.8755 0.702944 14.3145C1.15303 14.7534 1.76348 15 2.4 15H15.6C16.2365 15 16.847 14.7534 17.2971 14.3145C17.7471 13.8755 18 13.2802 18 12.6595V6.12738C18 5.50663 17.7471 4.91131 17.2971 4.47237C16.847 4.03343 16.2365 3.78684 15.6 3.78684ZM16.8 12.6556C16.8 12.9659 16.6736 13.2636 16.4485 13.4831C16.2235 13.7025 15.9183 13.8258 15.6 13.8258H2.4C2.08174 13.8258 1.77652 13.7025 1.55147 13.4831C1.32643 13.2636 1.2 12.9659 1.2 12.6556V6.12738C1.2 5.81701 1.32643 5.51934 1.55147 5.29988C1.77652 5.08041 2.08174 4.95711 2.4 4.95711H15.6C15.9183 4.95711 16.2235 5.08041 16.4485 5.29988C16.6736 5.51934 16.8 5.81701 16.8 6.12738V12.6556Z" fill="#17823C"/>
<path d="M11.7173 8.48814L7.92009 6.09002C7.82893 6.03366 7.72446 6.00264 7.6174 6.00016C7.51035 5.99768 7.40457 6.02382 7.31091 6.0759C7.21725 6.12797 7.13909 6.20411 7.08445 6.2965C7.02982 6.38889 7.00067 6.4942 7 6.60162V11.3957C7.0002 11.5038 7.02924 11.6099 7.08409 11.7029C7.13895 11.7959 7.21762 11.8725 7.31195 11.9247C7.40628 11.9769 7.51281 12.0028 7.6205 11.9998C7.72819 11.9967 7.8331 11.9648 7.92434 11.9073L11.7173 9.51134C11.8038 9.45712 11.8751 9.38171 11.9246 9.29221C11.9741 9.20272 12 9.10207 12 8.99974C12 8.89742 11.9741 8.79677 11.9246 8.70727C11.8751 8.61778 11.8038 8.54237 11.7173 8.48814Z" fill="#17823C"/>
</svg>
