<svg width="28" height="28" viewBox="0 0 28 28" fill="none" xmlns="http://www.w3.org/2000/svg">
<path d="M12.7881 14.8447C10.4729 14.7338 8.18869 14.1114 6.13789 13.0282C5.10512 12.4826 4.10104 11.8254 3.22645 11.0471C3.01633 10.8609 1.96342 9.93124 1.38191 9.27942C1.18574 9.05982 0.821313 9.12034 0.726721 9.39814C0.307256 10.6265 0.0591543 11.9325 0.000227687 13.2873C-0.00209836 13.3595 0.0133973 13.434 0.0467373 13.4984C2.41698 18.1085 7.16522 21.0425 12.3957 21.0425C13.0323 21.0425 13.665 20.985 14.2907 20.895C14.4923 20.8655 14.6427 20.6809 14.6287 20.4775C14.5008 18.6005 13.9945 16.7552 13.1168 15.0527C13.0532 14.9293 12.9269 14.8517 12.7881 14.8447ZM13.5355 14.0625L13.6774 13.9803L13.5355 13.898V14.0625ZM20.0771 9.33529C19.957 9.1894 19.7445 9.14982 19.5801 9.24294C17.679 10.3184 16.0484 11.8363 14.8265 13.6885C14.7489 13.8057 14.7443 13.957 14.8094 14.0819C16.8114 17.9114 17.1735 22.4027 15.7833 26.51C15.6429 26.9236 15.4871 27.3271 15.3173 27.7213C17.3022 27.5133 19.1568 26.8739 20.8052 25.9156C20.8618 25.8822 20.9114 25.8357 20.9478 25.7806C23.8236 21.4048 24.0167 15.7643 21.3782 11.1906C20.999 10.5334 20.5571 9.91727 20.0771 9.33529ZM24.516 5.01541C23.3824 3.6528 21.9992 2.50747 20.4284 1.65932C20.3733 1.62983 20.3113 1.61198 20.2485 1.6081C15.0273 1.30702 10.0557 3.96087 7.41877 8.5306C7.03807 9.19251 6.72329 9.88778 6.4589 10.6001C6.39299 10.7786 6.46665 10.9835 6.6318 11.0781C8.49884 12.1482 10.6031 12.7705 12.7873 12.8893C12.9253 12.897 13.0563 12.8272 13.1315 12.7116C15.4498 9.13819 19.1134 6.63643 23.3065 5.79915C23.6228 5.73552 23.9399 5.68354 24.257 5.64086C24.5586 5.59973 24.7106 5.24898 24.516 5.01541Z" fill="#22B455"/>
<path d="M14.1112 22.8882C13.5421 22.951 12.9699 22.9851 12.3961 22.9851C8.01542 22.9851 3.93321 21.1771 1.00238 18.1345C0.872125 17.9995 0.643407 18.1283 0.703109 18.3068C2.44842 23.5144 7.18968 27.3461 12.8738 27.7489C13.0319 27.7605 13.1847 27.6728 13.2552 27.5308C13.5158 27.0047 13.7538 26.4615 13.9476 25.8904C14.2329 25.0477 14.4283 24.1871 14.5454 23.3196C14.5788 23.0689 14.3617 22.8602 14.1112 22.8882ZM26.2672 7.67046C26.1974 7.53233 26.0516 7.44619 25.8973 7.45162C25.1615 7.47878 24.4234 7.55716 23.6868 7.70382C23.1851 7.80392 22.6959 7.9405 22.2152 8.0988C21.9632 8.18183 21.8764 8.49066 22.0361 8.7025C22.4044 9.18904 22.7509 9.69265 23.058 10.2234C25.1592 13.8674 25.6802 18.1042 24.6878 22.0284C24.6389 22.2208 24.8832 22.3388 25.0018 22.1797C26.7254 19.8657 27.7504 17.0016 27.7504 13.9C27.7504 11.6605 27.2123 9.54599 26.2672 7.67046V7.67046ZM2.12198 6.50727C2.03825 6.63996 2.04213 6.81222 2.13052 6.94103C2.4267 7.37481 2.74305 7.79771 3.09738 8.202C3.47187 8.62801 3.87583 9.01911 4.29684 9.38769C4.49533 9.56151 4.8016 9.48159 4.90473 9.23948C5.15051 8.66603 5.42809 8.105 5.74133 7.56337C7.92317 3.78048 11.5076 1.14681 15.5867 0.119413C15.0199 0.0487991 14.4462 -9.04762e-05 13.8608 -9.04762e-05C8.91871 -9.04762e-05 4.58372 2.60565 2.12198 6.50727" fill="#22B455"/>
</svg>
