<svg width="20" height="20" viewBox="0 0 20 20" fill="none" xmlns="http://www.w3.org/2000/svg">
<path fill-rule="evenodd" clip-rule="evenodd" d="M13.4122 7.05911C13.4504 6.61667 13.8411 6.28889 14.2848 6.32699C16.1342 6.48577 17.5989 7.05435 18.5736 8.25201C19.5301 9.42747 19.892 11.0626 19.892 13.0756V13.2001C19.892 15.4202 19.4511 17.1836 18.2594 18.3718C17.0678 19.56 15.2992 19.9997 13.0726 19.9997H6.81952C4.59296 19.9997 2.82438 19.56 1.6327 18.3718C0.441025 17.1836 0.00012207 15.4202 0.00012207 13.2001V13.0756C0.00012207 11.0772 0.357141 9.45206 1.29826 8.27909C2.25803 7.08288 3.70156 6.50654 5.52478 6.33707C5.96824 6.29585 6.36124 6.62088 6.40258 7.06304C6.44392 7.5052 6.11794 7.89706 5.67448 7.93828C4.0974 8.08487 3.14439 8.55246 2.55769 9.28369C1.95235 10.0382 1.61298 11.224 1.61298 13.0756V13.2001C1.61298 15.2612 2.03176 16.4955 2.77316 17.2347C3.51457 17.9739 4.75247 18.3915 6.81952 18.3915H13.0726C15.1397 18.3915 16.3776 17.9739 17.119 17.2347C17.8604 16.4955 18.2792 15.2612 18.2792 13.2001V13.0756C18.2792 11.2099 17.935 10.0197 17.3211 9.26528C16.7253 8.5331 15.7551 8.06732 14.1465 7.92921C13.7027 7.89111 13.374 7.50155 13.4122 7.05911Z" fill="white"/>
<path fill-rule="evenodd" clip-rule="evenodd" d="M10.5677 1.35101C10.911 1.35101 11.1893 1.70886 11.1893 2.15028V12.9842C11.1893 13.4256 10.911 13.7834 10.5677 13.7834C10.2244 13.7834 9.94604 13.4256 9.94604 12.9842V2.15028C9.94604 1.70886 10.2244 1.35101 10.5677 1.35101Z" fill="white"/>
<path fill-rule="evenodd" clip-rule="evenodd" d="M9.95108 0.350944C10.2916 0.0267361 10.8437 0.0267361 11.1842 0.350944L14.6636 3.66354C15.0041 3.98775 15.0041 4.5134 14.6636 4.8376C14.3231 5.16181 13.771 5.16181 13.4304 4.8376L10.5677 2.11203L7.70487 4.8376C7.36434 5.16181 6.81224 5.16181 6.47171 4.8376C6.13118 4.5134 6.13118 3.98775 6.47171 3.66354L9.95108 0.350944Z" fill="white"/>
</svg>
