<svg width="22" height="19" viewBox="0 0 22 19" fill="none" xmlns="http://www.w3.org/2000/svg">
<path fill-rule="evenodd" clip-rule="evenodd" d="M4.97302 6.83781C4.97302 6.4945 5.33085 6.21619 5.77225 6.21619H11.6333C12.0747 6.21619 12.4325 6.4945 12.4325 6.83781C12.4325 7.18112 12.0747 7.45943 11.6333 7.45943H5.77225C5.33085 7.45943 4.97302 7.18112 4.97302 6.83781Z" fill="#22B455"/>
<path fill-rule="evenodd" clip-rule="evenodd" d="M16.8371 7.98944C16.4613 7.98944 16.1326 8.13234 15.8957 8.37151L15.8795 8.38743C15.6016 8.65406 15.4469 9.03308 15.4859 9.43528L15.4869 9.44571L15.4868 9.44571C15.5415 10.09 16.1766 10.6592 16.9694 10.6592H19.1089C19.2473 10.6493 19.3309 10.5441 19.3309 10.4405V8.2081C19.3309 8.10446 19.2473 7.9993 19.1089 7.98944H16.8371ZM14.6111 7.1264C15.1893 6.54697 15.9819 6.21619 16.8371 6.21619H19.1304C19.1412 6.21619 19.1519 6.21637 19.1626 6.21675C20.2528 6.25502 21.1351 7.12235 21.1351 8.2081V10.4405C21.1351 11.5262 20.2528 12.3936 19.1626 12.4318C19.1519 12.4322 19.1412 12.4324 19.1304 12.4324H16.9694C15.3822 12.4324 13.8359 11.2917 13.6893 9.59821C13.5982 8.64102 13.969 7.74695 14.6111 7.1264Z" fill="#22B455"/>
<path fill-rule="evenodd" clip-rule="evenodd" d="M5.60829 1.63744C5.37598 1.63744 5.15592 1.65466 4.94743 1.68796L4.92571 1.69111C3.87303 1.82824 3.04946 2.29528 2.48656 2.98088C1.92203 3.66845 1.57733 4.62799 1.57733 5.82202V12.8266C1.57733 14.1416 1.99611 15.1737 2.67173 15.8751C3.34735 16.5765 4.34162 17.0112 5.60829 17.0112H14.2836C15.5503 17.0112 16.5445 16.5765 17.2202 15.8751C17.8958 15.1737 18.3146 14.1416 18.3146 12.8266V12.1944H17.2139C15.8263 12.1944 14.4744 11.1411 14.3463 9.57724C14.2667 8.69338 14.5908 7.8678 15.1521 7.29478C15.6577 6.75972 16.3506 6.45427 17.0982 6.45427H18.3146V5.82202C18.3146 4.61999 17.9638 3.65448 17.3904 2.96467C16.8184 2.2766 15.982 1.81073 14.9155 1.68198C14.9026 1.68042 14.8897 1.67854 14.8769 1.67632C14.7088 1.64723 14.518 1.63744 14.2836 1.63744H5.60829ZM4.7185 0.0678266C5.00781 0.022239 5.30462 0 5.60829 0H14.2836C14.5445 0 14.8286 0.00974487 15.1164 0.0577917C16.5287 0.232595 17.7337 0.871339 18.5846 1.89488C19.4377 2.9212 19.8919 4.28224 19.8919 5.82202V7.27299C19.8919 7.72515 19.5388 8.09171 19.1032 8.09171H17.0982C16.7698 8.09171 16.4824 8.22367 16.2752 8.44451L16.2611 8.45921C16.0182 8.70542 15.8829 9.05541 15.917 9.42682L15.9179 9.43644L15.9178 9.43644C15.9656 10.0314 16.5208 10.5569 17.2139 10.5569H19.1032C19.5388 10.5569 19.8919 10.9235 19.8919 11.3757V12.8266C19.8919 14.5137 19.3467 15.9832 18.3355 17.0329C17.3243 18.0827 15.9087 18.6486 14.2836 18.6486H5.60829C3.98318 18.6486 2.56764 18.0827 1.55639 17.0329C0.545145 15.9832 0 14.5137 0 12.8266V5.82202C0 4.29425 0.445716 2.94227 1.28611 1.91871C2.12596 0.895805 3.31785 0.252789 4.7185 0.0678266Z" fill="#22B455"/>
</svg>
